<svg xmlns="http://www.w3.org/2000/svg" width="200" height="55.942" viewBox="0 0 200 55.942"><g transform="translate(100 27.971)"><g transform="translate(-100 -27.971)"><g transform="translate(0 5.867)"><path d="M5.8,28.321h6.319l-1.1,5.064a14.1,14.1,0,0,1,4.83-4.073,12.608,12.608,0,0,1,5.822-1.462q3.237,0,4.7,1.593a6.375,6.375,0,0,1,1.567,4.2A15.759,15.759,0,0,1,32.9,29.339a11.976,11.976,0,0,1,5.744-1.488,7.625,7.625,0,0,1,2.95.5A4.772,4.772,0,0,1,43.47,29.7a5.078,5.078,0,0,1,.992,2.01,10.36,10.36,0,0,1,.287,2.507q0,.836-.1,1.906a21.315,21.315,0,0,1-.418,2.481L40.572,55.683h-7l3.237-15.352q.157-.784.261-1.488a8.81,8.81,0,0,0,.1-1.279,4.007,4.007,0,0,0-.757-2.689,2.607,2.607,0,0,0-2.063-.861,6.335,6.335,0,0,0-3.942,1.619,12.227,12.227,0,0,0-3.264,4.125L23.811,55.683h-7l3.237-15.352a15.062,15.062,0,0,0,.313-2.82,4,4,0,0,0-.731-2.663,2.63,2.63,0,0,0-2.089-.835,4.963,4.963,0,0,0-1.933.418,8.625,8.625,0,0,0-1.958,1.175,10.974,10.974,0,0,0-1.8,1.8,12.92,12.92,0,0,0-1.463,2.3L7,55.683H0Z" transform="translate(0 -17.564)"/><path d="M75.807,62.6q1.565-.157,2.688-.366a7.209,7.209,0,0,0,1.985-.652,6.742,6.742,0,0,0,1.593-1.149,13.032,13.032,0,0,0,1.514-1.8L85.1,56.6,80.558,28.662h7.154l2.35,21.3,1.775-2.924q1.619-2.663,2.82-4.987T96.8,37.539a45.927,45.927,0,0,0,1.618-4.36q.679-2.166,1.253-4.516h6.788q-.732,2.506-1.514,4.7a45.125,45.125,0,0,1-1.984,4.647q-1.2,2.455-2.95,5.456T95.7,50.644L91.523,57.38A43.213,43.213,0,0,1,88,62.315a19.3,19.3,0,0,1-3.446,3.264,11.862,11.862,0,0,1-3.682,1.8,16.875,16.875,0,0,1-4.229.6Z" transform="translate(-31.84 -17.905)"/><path d="M133.506,48.651a6.029,6.029,0,0,1-4.073-1.227,4.42,4.42,0,0,1-1.41-3.525,8.5,8.5,0,0,1,.052-.94c.035-.314.087-.661.157-1.045l6.788-31.8h6.945L135.751,39.46a5.324,5.324,0,0,0-.1,1.045,1.892,1.892,0,0,0,2.141,2.141,5.074,5.074,0,0,0,1.332-.209,9.325,9.325,0,0,0,1.436-.522l-.209,5.326a15.434,15.434,0,0,1-3.42,1.045A18.414,18.414,0,0,1,133.506,48.651Z" transform="translate(-53.772 -10.115)"/><path d="M166.373,56.2a11.836,11.836,0,0,1-4.83-.914,9.825,9.825,0,0,1-3.447-2.48,10.585,10.585,0,0,1-2.089-3.629,13.389,13.389,0,0,1-.7-4.36,16.127,16.127,0,0,1,1.279-6.292,17.666,17.666,0,0,1,3.551-5.43,17.46,17.46,0,0,1,5.4-3.812,16.225,16.225,0,0,1,6.84-1.436,11.707,11.707,0,0,1,4.778.914,10.3,10.3,0,0,1,3.473,2.454,10.073,10.073,0,0,1,2.114,3.629,13.78,13.78,0,0,1,.705,4.439,15.944,15.944,0,0,1-1.279,6.266,17.759,17.759,0,0,1-3.551,5.4,17.431,17.431,0,0,1-5.4,3.812A16.229,16.229,0,0,1,166.373,56.2Zm1.253-5.953a6.715,6.715,0,0,0,3.159-.809,9.619,9.619,0,0,0,2.742-2.167,10.762,10.762,0,0,0,1.932-3.211,10.647,10.647,0,0,0,.73-3.942,7.244,7.244,0,0,0-1.357-4.569,4.44,4.44,0,0,0-3.707-1.749,6.715,6.715,0,0,0-3.159.809,9.425,9.425,0,0,0-2.742,2.193,11.2,11.2,0,0,0-1.932,3.211,10.445,10.445,0,0,0-.731,3.917,7.242,7.242,0,0,0,1.358,4.569A4.438,4.438,0,0,0,167.626,50.252Z" transform="translate(-65.23 -17.564)"/><path d="M210.406,28.321h6.11l-.992,4.7a15.469,15.469,0,0,1,4.517-3.786,11.306,11.306,0,0,1,5.509-1.384,8.969,8.969,0,0,1,3.969.862,8.594,8.594,0,0,1,3,2.4,11.156,11.156,0,0,1,1.879,3.577,14.3,14.3,0,0,1,.653,4.386,17.673,17.673,0,0,1-1.2,6.475,18.809,18.809,0,0,1-3.237,5.456,15.919,15.919,0,0,1-4.726,3.786,11.931,11.931,0,0,1-5.613,1.41,8.243,8.243,0,0,1-4.961-1.436,7.179,7.179,0,0,1-2.715-3.89L209.2,66.8h-7Zm8.825,21.93a6.5,6.5,0,0,0,3.211-.861,9.657,9.657,0,0,0,2.715-2.272,11.547,11.547,0,0,0,1.88-3.211,10.028,10.028,0,0,0,.7-3.682,7.125,7.125,0,0,0-1.462-4.595,4.813,4.813,0,0,0-3.969-1.828,5.953,5.953,0,0,0-1.932.339,8.369,8.369,0,0,0-1.932.966,11.724,11.724,0,0,0-1.776,1.462,8.9,8.9,0,0,0-1.409,1.828l-1.41,6.423a7.378,7.378,0,0,0,1.88,3.891A4.655,4.655,0,0,0,219.231,50.252Z" transform="translate(-84.931 -17.564)"/><path d="M270.471,56.167a17.544,17.544,0,0,1-6.214-1.1,11.4,11.4,0,0,1-4.7-3.132l3.5-4.386a12.39,12.39,0,0,0,8.3,3.6,5.627,5.627,0,0,0,3.447-.94,3.079,3.079,0,0,0,1.253-2.611,2,2,0,0,0-1.123-1.8,17.562,17.562,0,0,0-3.63-1.384q-2.089-.626-3.577-1.227a10.666,10.666,0,0,1-2.454-1.331,4.6,4.6,0,0,1-1.41-1.645,4.785,4.785,0,0,1-.444-2.115,8.962,8.962,0,0,1,.992-4.2,10.121,10.121,0,0,1,2.689-3.264,12.782,12.782,0,0,1,3.942-2.115,15.706,15.706,0,0,1,10.026.13,10.869,10.869,0,0,1,4.178,2.871l-3.707,4.23a11.871,11.871,0,0,0-3.369-2.3,8.709,8.709,0,0,0-3.472-.731,5.561,5.561,0,0,0-3.159.888,3.038,3.038,0,0,0-1.332,2.715A1.824,1.824,0,0,0,271.2,38a16.2,16.2,0,0,0,3.341,1.253,21.158,21.158,0,0,1,6.476,2.689,4.762,4.762,0,0,1,2.089,4.1,8.931,8.931,0,0,1-.94,4.1,9.563,9.563,0,0,1-2.611,3.185,12.614,12.614,0,0,1-3.995,2.089A16.38,16.38,0,0,1,270.471,56.167Z" transform="translate(-109.019 -17.527)"/></g><path d="M322.227,6.788a5.191,5.191,0,0,0-1.949.381,5.22,5.22,0,1,0-9.677,0,5.22,5.22,0,1,0,0,9.677,5.22,5.22,0,1,0,9.677,0,5.218,5.218,0,1,0,1.949-10.058ZM315.439,2.32a2.9,2.9,0,1,1-2.9,2.9A2.9,2.9,0,0,1,315.439,2.32Zm1.949,7.739a5.175,5.175,0,0,0,0,3.9,5.177,5.177,0,0,0-3.9,0,5.173,5.173,0,0,0,0-3.9,5.171,5.171,0,0,0,3.9,0Zm-11.637,1.949a2.9,2.9,0,1,1,2.9,2.9A2.9,2.9,0,0,1,305.751,12.007Zm9.687,9.688a2.9,2.9,0,1,1,2.9-2.9A2.9,2.9,0,0,1,315.438,21.7Zm6.788-6.788a2.9,2.9,0,1,1,2.9-2.9A2.9,2.9,0,0,1,322.227,14.908Z" transform="translate(-127.446)"/></g></g></svg>