<svg xmlns="http://www.w3.org/2000/svg" width="160" height="44.754" viewBox="0 0 160 44.754"><g transform="translate(80 22.377)"><g transform="translate(-80 -22.377)"><g transform="translate(0 4.693)"><path d="M4.637,28.227H9.692l-.877,4.052a11.283,11.283,0,0,1,3.864-3.258,10.086,10.086,0,0,1,4.658-1.17,4.888,4.888,0,0,1,3.76,1.274,5.1,5.1,0,0,1,1.253,3.363,12.607,12.607,0,0,1,3.968-3.446,9.581,9.581,0,0,1,4.595-1.191,6.1,6.1,0,0,1,2.36.4,3.817,3.817,0,0,1,1.5,1.086,4.063,4.063,0,0,1,.793,1.608,8.288,8.288,0,0,1,.23,2.005q0,.669-.083,1.525a17.052,17.052,0,0,1-.335,1.984l-2.924,13.66h-5.6l2.59-12.281q.125-.627.209-1.191a7.049,7.049,0,0,0,.084-1.024,3.206,3.206,0,0,0-.606-2.152,2.086,2.086,0,0,0-1.65-.689,5.068,5.068,0,0,0-3.154,1.295,9.782,9.782,0,0,0-2.611,3.3L19.049,50.116h-5.6l2.59-12.281a12.05,12.05,0,0,0,.251-2.256,3.2,3.2,0,0,0-.585-2.131,2.1,2.1,0,0,0-1.671-.668,3.97,3.97,0,0,0-1.546.334,6.9,6.9,0,0,0-1.566.94A8.779,8.779,0,0,0,9.483,35.5a10.336,10.336,0,0,0-1.17,1.838L5.6,50.116H0Z" transform="translate(0 -19.622)" fill="#fff"/><path d="M75.807,55.814q1.252-.126,2.151-.293A5.767,5.767,0,0,0,79.545,55a5.394,5.394,0,0,0,1.274-.919,10.426,10.426,0,0,0,1.211-1.441l1.211-1.629L79.608,28.662h5.723l1.88,17.043,1.42-2.339q1.3-2.13,2.256-3.989T92.6,35.763a36.741,36.741,0,0,0,1.295-3.488q.543-1.733,1-3.613h5.43q-.585,2-1.211,3.759a36.1,36.1,0,0,1-1.587,3.718q-.961,1.964-2.36,4.365t-3.446,5.744L88.38,51.637a34.57,34.57,0,0,1-2.82,3.948A15.44,15.44,0,0,1,82.8,58.2a9.49,9.49,0,0,1-2.945,1.441,13.5,13.5,0,0,1-3.383.481Z" transform="translate(-40.634 -20.056)" fill="#fff"/><path d="M132.41,40.944a4.823,4.823,0,0,1-3.259-.982,3.536,3.536,0,0,1-1.128-2.82,6.8,6.8,0,0,1,.042-.752c.028-.251.07-.529.126-.836l5.43-25.44h5.556l-4.971,23.476a4.256,4.256,0,0,0-.084.836,1.513,1.513,0,0,0,1.713,1.713,4.059,4.059,0,0,0,1.065-.167,7.459,7.459,0,0,0,1.149-.418l-.167,4.261a12.348,12.348,0,0,1-2.736.836A14.732,14.732,0,0,1,132.41,40.944Z" transform="translate(-68.622 -10.115)" fill="#fff"/><path d="M164.159,50.534A9.469,9.469,0,0,1,160.3,49.8a7.86,7.86,0,0,1-2.757-1.984,8.468,8.468,0,0,1-1.671-2.9,10.711,10.711,0,0,1-.564-3.488,12.9,12.9,0,0,1,1.024-5.034,14.132,14.132,0,0,1,2.841-4.344A13.968,13.968,0,0,1,163.49,29a12.98,12.98,0,0,1,5.472-1.149,9.366,9.366,0,0,1,3.822.731,8.243,8.243,0,0,1,2.778,1.963,8.058,8.058,0,0,1,1.691,2.9A11.024,11.024,0,0,1,177.818,37a12.755,12.755,0,0,1-1.024,5.013,14.208,14.208,0,0,1-2.841,4.323,13.945,13.945,0,0,1-4.323,3.049A12.983,12.983,0,0,1,164.159,50.534Zm1-4.762a5.372,5.372,0,0,0,2.527-.647,7.7,7.7,0,0,0,2.193-1.733,8.61,8.61,0,0,0,1.546-2.569,8.518,8.518,0,0,0,.584-3.154,5.8,5.8,0,0,0-1.086-3.655,3.552,3.552,0,0,0-2.966-1.4,5.372,5.372,0,0,0-2.527.647,7.54,7.54,0,0,0-2.193,1.754,8.962,8.962,0,0,0-1.546,2.569,8.356,8.356,0,0,0-.585,3.133,5.794,5.794,0,0,0,1.086,3.655A3.551,3.551,0,0,0,165.161,45.772Z" transform="translate(-83.245 -19.622)" fill="#fff"/><path d="M208.766,28.227h4.888l-.794,3.759a12.375,12.375,0,0,1,3.614-3.028,9.045,9.045,0,0,1,4.407-1.107,7.175,7.175,0,0,1,3.175.689,6.875,6.875,0,0,1,2.4,1.921,8.925,8.925,0,0,1,1.5,2.861,11.44,11.44,0,0,1,.522,3.509,14.139,14.139,0,0,1-.961,5.18,15.047,15.047,0,0,1-2.59,4.365,12.734,12.734,0,0,1-3.781,3.028,9.545,9.545,0,0,1-4.49,1.128,6.594,6.594,0,0,1-3.968-1.149,5.743,5.743,0,0,1-2.172-3.112l-2.716,12.741h-5.6Zm7.06,17.544a5.2,5.2,0,0,0,2.569-.689,7.726,7.726,0,0,0,2.172-1.817,9.238,9.238,0,0,0,1.5-2.569,8.022,8.022,0,0,0,.564-2.945,5.7,5.7,0,0,0-1.169-3.676,3.851,3.851,0,0,0-3.175-1.462,4.762,4.762,0,0,0-1.546.271,6.7,6.7,0,0,0-1.546.773,9.379,9.379,0,0,0-1.421,1.17,7.119,7.119,0,0,0-1.127,1.462l-1.128,5.138a5.9,5.9,0,0,0,1.5,3.112A3.724,3.724,0,0,0,215.826,45.772Z" transform="translate(-108.386 -19.622)" fill="#fff"/><path d="M268.288,50.486a14.035,14.035,0,0,1-4.971-.877,9.121,9.121,0,0,1-3.759-2.506l2.8-3.509A9.912,9.912,0,0,0,269,46.475a4.5,4.5,0,0,0,2.757-.752,2.463,2.463,0,0,0,1-2.088,1.6,1.6,0,0,0-.9-1.441,14.048,14.048,0,0,0-2.9-1.107q-1.671-.5-2.861-.982a8.532,8.532,0,0,1-1.963-1.065A3.678,3.678,0,0,1,263,37.724a3.828,3.828,0,0,1-.355-1.692,7.17,7.17,0,0,1,.794-3.363,8.1,8.1,0,0,1,2.151-2.611,10.226,10.226,0,0,1,3.154-1.692,12.565,12.565,0,0,1,8.02.1,8.7,8.7,0,0,1,3.342,2.3l-2.966,3.384a9.5,9.5,0,0,0-2.695-1.838,6.968,6.968,0,0,0-2.777-.585,4.449,4.449,0,0,0-2.527.71,2.43,2.43,0,0,0-1.065,2.172,1.46,1.46,0,0,0,.794,1.337,12.956,12.956,0,0,0,2.673,1,16.926,16.926,0,0,1,5.18,2.152,3.809,3.809,0,0,1,1.671,3.279,7.145,7.145,0,0,1-.752,3.279,7.651,7.651,0,0,1-2.088,2.548,10.092,10.092,0,0,1-3.2,1.671A13.1,13.1,0,0,1,268.288,50.486Z" transform="translate(-139.127 -19.574)" fill="#fff"/></g><path d="M318.467,5.43a4.153,4.153,0,0,0-1.559.3,4.176,4.176,0,1,0-7.742,0,4.176,4.176,0,1,0,0,7.742,4.176,4.176,0,1,0,7.742,0,4.175,4.175,0,1,0,1.559-8.046Zm-5.43-3.575a2.32,2.32,0,1,1-2.32,2.32A2.323,2.323,0,0,1,313.037,1.856ZM314.6,8.047a4.14,4.14,0,0,0,0,3.118,4.141,4.141,0,0,0-3.119,0,4.138,4.138,0,0,0,0-3.119,4.137,4.137,0,0,0,3.118,0Zm-9.309,1.559a2.32,2.32,0,1,1,2.32,2.32A2.323,2.323,0,0,1,305.287,9.606Zm7.75,7.75a2.32,2.32,0,1,1,2.32-2.32A2.323,2.323,0,0,1,313.037,17.356Zm5.43-5.43a2.32,2.32,0,1,1,2.32-2.32A2.323,2.323,0,0,1,318.467,11.926Z" transform="translate(-162.643)" fill="#fff"/></g></g></svg>